<svg width="26" height="26" viewBox="0 0 26 26" fill="none" xmlns="http://www.w3.org/2000/svg">
<path d="M17.1084 7.50339C17.1084 8.74698 17.131 9.99058 17.1009 11.2323C17.0783 12.1316 16.6814 12.3724 15.8161 12.0864C14.4617 11.6406 13.508 10.2615 13.4704 8.60024C13.4346 6.98413 13.4685 5.36802 13.4459 3.75379C13.4384 3.2872 13.5813 2.54593 12.9342 2.5497C12.3003 2.55346 12.4452 3.30037 12.4301 3.75943C12.3944 4.84687 12.4264 5.93431 12.4094 7.02175C12.3906 8.26723 11.9749 8.5024 10.8538 7.93046C9.17959 7.07443 8.40647 5.29276 8.82219 3.25146C9.17395 1.52434 10.8312 0.137761 12.6953 0.00982635C14.9903 -0.146329 16.9805 1.57702 17.0877 3.87043C17.1441 5.08016 17.0971 6.29366 17.0971 7.50527C17.1009 7.50527 17.1065 7.50527 17.1103 7.50527L17.1084 7.50339Z" fill="#868686"/>
<path d="M8.77774 18.4967C8.77774 17.2531 8.75517 16.0095 8.78527 14.7678C8.80784 13.8685 9.20475 13.6276 10.07 13.9136C11.4244 14.3595 12.3781 15.7385 12.4158 17.3998C12.4515 19.0159 12.4176 20.632 12.4402 22.2463C12.4477 22.7129 12.3048 23.4541 12.9519 23.4504C13.5858 23.4466 13.441 22.6997 13.456 22.2406C13.4917 21.1532 13.4598 20.0657 13.4767 18.9783C13.4955 17.7328 13.9112 17.4976 15.0324 18.0696C16.7065 18.9256 17.4797 20.7073 17.0639 22.7486C16.7122 24.4757 15.0549 25.8623 13.1908 25.9902C10.8958 26.1464 8.90566 24.423 8.79843 22.1296C8.742 20.9199 8.78903 19.7064 8.78903 18.4948C8.78527 18.4948 8.77962 18.4948 8.77586 18.4948L8.77774 18.4967Z" fill="#868686"/>
<path d="M18.4739 17.1347C17.2305 17.1347 15.9871 17.1573 14.7456 17.1272C13.8464 17.1046 13.6056 16.7077 13.8915 15.8422C14.3374 14.4876 15.7162 13.5338 17.3772 13.4961C18.9931 13.4604 20.6089 13.4943 22.2229 13.4717C22.6894 13.4642 23.4305 13.6071 23.4268 12.9599C23.423 12.3259 22.6762 12.4708 22.2172 12.4557C21.13 12.42 20.0427 12.452 18.9554 12.435C17.7102 12.4162 17.475 12.0004 18.0469 10.8791C18.9028 9.2047 20.6842 8.43145 22.7251 8.84724C24.452 9.19906 25.8383 10.8566 25.9662 12.721C26.1224 15.0163 24.3993 17.0068 22.1063 17.114C20.8967 17.1705 19.6834 17.1235 18.472 17.1235C18.472 17.1272 18.472 17.1329 18.472 17.1366L18.4739 17.1347Z" fill="#868686"/>
<path d="M7.50219 8.94711C8.74559 8.94711 9.98899 8.92453 11.2305 8.95463C12.1297 8.97721 12.3704 9.37418 12.0845 10.2396C11.6387 11.5942 10.2599 12.5481 8.59887 12.5857C6.98301 12.6215 5.36716 12.5876 3.75319 12.6102C3.28668 12.6177 2.54553 12.4747 2.54929 13.1219C2.55305 13.7559 3.29985 13.6111 3.75883 13.6261C4.8461 13.6619 5.93337 13.6299 7.02064 13.6468C8.26591 13.6656 8.50105 14.0814 7.9292 15.2027C7.07331 16.8772 5.29192 17.6504 3.25094 17.2346C1.5241 16.8828 0.137739 15.2253 0.00982479 13.3608C-0.146305 11.0655 1.57677 9.07504 3.86981 8.9678C5.07935 8.91136 6.29265 8.95839 7.50408 8.95839C7.50408 8.95463 7.50408 8.94899 7.50408 8.94523L7.50219 8.94711Z" fill="#868686"/>
</svg>
